M48
METRIC,LZ,000.000
;FILE_FORMAT=3:3
;TYPE=PLATED
;Layer: PTH_Through
;EasyEDA v6.5.9, 2022-08-12 00:02:45
;2a9479771ff5440bbc068576edc866e0,fa163e59c691420ea6e3b66f1dbf35ee,10
;Gerber Generator version 0.2
;Holesize 1 = 0.712 mm
T01C0.712
;Holesize 2 = 0.800 mm
T02C0.800
;Holesize 3 = 0.900 mm
T03C0.900
;Holesize 4 = 0.915 mm
T04C0.915
;Holesize 5 = 1.200 mm
T05C1.200
%
G05
G90
T01
X048162Y095029
X048162Y097569
T02
X041685Y097299
X041685Y095299
T03
X040796Y069883
X040796Y077503
X027969Y070264
X027969Y062644
T04
X045622Y072677
T05
X022889Y085377
X022889Y082837
X022889Y080297
X022889Y077757
X022889Y075217
X022889Y072677
X022889Y070137
X022889Y067597
X045622Y085377
X045622Y082837
X045622Y080297
X045622Y077757
X045622Y075217
X045622Y072677
X045622Y070137
X045622Y067597
X023401Y100301
X025941Y100301
X028481Y100301
X031021Y100301
X033561Y100301
X036101Y100301
X038641Y100301
X041181Y100301
X030763Y090457
X030763Y087917
X030763Y075217
X030763Y072677
X030763Y085377
X030763Y082837
X030763Y077757
X030763Y080297
X030763Y070137
X030763Y067597
X030763Y065057
X030763Y062517
X038383Y062517
X038383Y065057
X038383Y067597
X038383Y070137
X038383Y072677
X038383Y075217
X038383Y077757
X038383Y080297
X038383Y082837
X038383Y085377
X038383Y087917
X038383Y090457
M30
