G04 Layer: TopLayer*
G04 EasyEDA v6.5.9, 2022-08-12 00:02:45*
G04 2a9479771ff5440bbc068576edc866e0,fa163e59c691420ea6e3b66f1dbf35ee,10*
G04 Gerber Generator version 0.2*
G04 Scale: 100 percent, Rotated: No, Reflected: No *
G04 Dimensions in millimeters *
G04 leading zeros omitted , absolute positions ,4 integer and 5 decimal *
%FSLAX45Y45*%
%MOMM*%

%ADD10C,0.2050*%
%ADD11C,0.2032*%
%ADD12C,0.2540*%
%ADD13R,1.8000X1.8000*%
%ADD14C,1.8000*%
%ADD15C,1.3000*%
%ADD16C,1.1938*%
%ADD17C,1.8796*%
%ADD18C,1.5240*%
%ADD19C,0.0114*%

%LPD*%
D10*
X2192522Y5805683D02*
G01*
X2164836Y5796539D01*
X2155438Y5777997D01*
X2155438Y5759455D01*
X2164836Y5741167D01*
X2183124Y5731769D01*
X2220208Y5722625D01*
X2247894Y5713481D01*
X2266436Y5694939D01*
X2275580Y5676397D01*
X2275580Y5648711D01*
X2266436Y5630169D01*
X2257038Y5621025D01*
X2229352Y5611881D01*
X2192522Y5611881D01*
X2164836Y5621025D01*
X2155438Y5630169D01*
X2146294Y5648711D01*
X2146294Y5676397D01*
X2155438Y5694939D01*
X2173980Y5713481D01*
X2201666Y5722625D01*
X2238750Y5731769D01*
X2257038Y5741167D01*
X2266436Y5759455D01*
X2266436Y5777997D01*
X2257038Y5796539D01*
X2229352Y5805683D01*
X2192522Y5805683D01*
X2382768Y5750311D02*
G01*
X2382768Y5639567D01*
X2336540Y5722625D02*
G01*
X2428996Y5667253D01*
X2428996Y5722625D02*
G01*
X2336540Y5667253D01*
X2536184Y5805683D02*
G01*
X2508244Y5796539D01*
X2499100Y5777997D01*
X2499100Y5759455D01*
X2508244Y5741167D01*
X2526786Y5731769D01*
X2563870Y5722625D01*
X2591556Y5713481D01*
X2609844Y5694939D01*
X2619242Y5676397D01*
X2619242Y5648711D01*
X2609844Y5630169D01*
X2600700Y5621025D01*
X2573014Y5611881D01*
X2536184Y5611881D01*
X2508244Y5621025D01*
X2499100Y5630169D01*
X2489956Y5648711D01*
X2489956Y5676397D01*
X2499100Y5694939D01*
X2517642Y5713481D01*
X2545328Y5722625D01*
X2582158Y5731769D01*
X2600700Y5741167D01*
X2609844Y5759455D01*
X2609844Y5777997D01*
X2600700Y5796539D01*
X2573014Y5805683D01*
X2536184Y5805683D01*
X2822442Y5805683D02*
G01*
X2822442Y5611881D01*
X2822442Y5611881D02*
G01*
X2933186Y5611881D01*
X2994146Y5805683D02*
G01*
X2994146Y5611881D01*
X2994146Y5805683D02*
G01*
X3114288Y5805683D01*
X2994146Y5713481D02*
G01*
X3068060Y5713481D01*
X2994146Y5611881D02*
G01*
X3114288Y5611881D01*
X3175248Y5805683D02*
G01*
X3175248Y5611881D01*
X3175248Y5805683D02*
G01*
X3239764Y5805683D01*
X3267704Y5796539D01*
X3285992Y5777997D01*
X3295390Y5759455D01*
X3304534Y5731769D01*
X3304534Y5685795D01*
X3295390Y5657855D01*
X3285992Y5639567D01*
X3267704Y5621025D01*
X3239764Y5611881D01*
X3175248Y5611881D01*
X3507734Y5805683D02*
G01*
X3507734Y5611881D01*
X3507734Y5805683D02*
G01*
X3572504Y5805683D01*
X3600190Y5796539D01*
X3618478Y5777997D01*
X3627876Y5759455D01*
X3637020Y5731769D01*
X3637020Y5685795D01*
X3627876Y5657855D01*
X3618478Y5639567D01*
X3600190Y5621025D01*
X3572504Y5611881D01*
X3507734Y5611881D01*
X3697980Y5805683D02*
G01*
X3707124Y5796539D01*
X3716522Y5805683D01*
X3707124Y5815081D01*
X3697980Y5805683D01*
X3707124Y5741167D02*
G01*
X3707124Y5611881D01*
X3879082Y5713481D02*
G01*
X3869684Y5731769D01*
X3841998Y5741167D01*
X3814312Y5741167D01*
X3786626Y5731769D01*
X3777482Y5713481D01*
X3786626Y5694939D01*
X3805168Y5685795D01*
X3851396Y5676397D01*
X3869684Y5667253D01*
X3879082Y5648711D01*
X3879082Y5639567D01*
X3869684Y5621025D01*
X3841998Y5611881D01*
X3814312Y5611881D01*
X3786626Y5621025D01*
X3777482Y5639567D01*
X3940042Y5741167D02*
G01*
X3940042Y5547111D01*
X3940042Y5713481D02*
G01*
X3958584Y5731769D01*
X3976872Y5741167D01*
X4004558Y5741167D01*
X4023100Y5731769D01*
X4041642Y5713481D01*
X4050786Y5685795D01*
X4050786Y5667253D01*
X4041642Y5639567D01*
X4023100Y5621025D01*
X4004558Y5611881D01*
X3976872Y5611881D01*
X3958584Y5621025D01*
X3940042Y5639567D01*
X4111746Y5805683D02*
G01*
X4111746Y5611881D01*
X4283704Y5741167D02*
G01*
X4283704Y5611881D01*
X4283704Y5713481D02*
G01*
X4265162Y5731769D01*
X4246620Y5741167D01*
X4218934Y5741167D01*
X4200392Y5731769D01*
X4182104Y5713481D01*
X4172706Y5685795D01*
X4172706Y5667253D01*
X4182104Y5639567D01*
X4200392Y5621025D01*
X4218934Y5611881D01*
X4246620Y5611881D01*
X4265162Y5621025D01*
X4283704Y5639567D01*
X4353808Y5741167D02*
G01*
X4409180Y5611881D01*
X4464552Y5741167D02*
G01*
X4409180Y5611881D01*
X4390638Y5574797D01*
X4372350Y5556255D01*
X4353808Y5547111D01*
X4344664Y5547111D01*
D11*
X3809994Y5434843D02*
G01*
X3809994Y5339339D01*
X3809994Y5389377D02*
G01*
X3819138Y5398521D01*
X3828282Y5403093D01*
X3841744Y5403093D01*
X3850888Y5398521D01*
X3860032Y5389377D01*
X3864604Y5375915D01*
X3864604Y5366771D01*
X3860032Y5353055D01*
X3850888Y5343911D01*
X3841744Y5339339D01*
X3828282Y5339339D01*
X3819138Y5343911D01*
X3809994Y5353055D01*
X3899148Y5403093D02*
G01*
X3926326Y5339339D01*
X3953504Y5403093D02*
G01*
X3926326Y5339339D01*
X3917182Y5321305D01*
X3908292Y5312161D01*
X3899148Y5307589D01*
X3894576Y5307589D01*
X4053580Y5434843D02*
G01*
X4053580Y5339339D01*
X4053580Y5434843D02*
G01*
X4094474Y5434843D01*
X4108190Y5430271D01*
X4112762Y5425699D01*
X4117334Y5416809D01*
X4117334Y5403093D01*
X4112762Y5393949D01*
X4108190Y5389377D01*
X4094474Y5384805D01*
X4053580Y5384805D01*
X4147306Y5403093D02*
G01*
X4147306Y5339339D01*
X4147306Y5375915D02*
G01*
X4151878Y5389377D01*
X4161022Y5398521D01*
X4169912Y5403093D01*
X4183628Y5403093D01*
X4268210Y5403093D02*
G01*
X4268210Y5339339D01*
X4268210Y5389377D02*
G01*
X4259066Y5398521D01*
X4249922Y5403093D01*
X4236460Y5403093D01*
X4227316Y5398521D01*
X4218172Y5389377D01*
X4213600Y5375915D01*
X4213600Y5366771D01*
X4218172Y5353055D01*
X4227316Y5343911D01*
X4236460Y5339339D01*
X4249922Y5339339D01*
X4259066Y5343911D01*
X4268210Y5353055D01*
X4298182Y5403093D02*
G01*
X4316470Y5339339D01*
X4334504Y5403093D02*
G01*
X4316470Y5339339D01*
X4334504Y5403093D02*
G01*
X4352792Y5339339D01*
X4370826Y5403093D02*
G01*
X4352792Y5339339D01*
X4400798Y5434843D02*
G01*
X4400798Y5339339D01*
X4400798Y5339339D02*
G01*
X4455408Y5339339D01*
X4539990Y5403093D02*
G01*
X4539990Y5339339D01*
X4539990Y5389377D02*
G01*
X4530846Y5398521D01*
X4521702Y5403093D01*
X4508240Y5403093D01*
X4499096Y5398521D01*
X4489952Y5389377D01*
X4485380Y5375915D01*
X4485380Y5366771D01*
X4489952Y5353055D01*
X4499096Y5343911D01*
X4508240Y5339339D01*
X4521702Y5339339D01*
X4530846Y5343911D01*
X4539990Y5353055D01*
X4569962Y5434843D02*
G01*
X4569962Y5339339D01*
X4615428Y5403093D02*
G01*
X4569962Y5357627D01*
X4588250Y5375915D02*
G01*
X4620000Y5339339D01*
X2299962Y10250563D02*
G01*
X2290818Y10246245D01*
X2281928Y10237101D01*
X2277356Y10227957D01*
X2277356Y10209669D01*
X2281928Y10200779D01*
X2290818Y10191635D01*
X2299962Y10187063D01*
X2313678Y10182491D01*
X2336284Y10182491D01*
X2350000Y10187063D01*
X2359144Y10191635D01*
X2368288Y10200779D01*
X2372860Y10209669D01*
X2372860Y10227957D01*
X2368288Y10237101D01*
X2359144Y10246245D01*
X2350000Y10250563D01*
X2336284Y10250563D01*
X2336284Y10227957D02*
G01*
X2336284Y10250563D01*
X2277356Y10280789D02*
G01*
X2372860Y10280789D01*
X2277356Y10280789D02*
G01*
X2372860Y10344289D01*
X2277356Y10344289D02*
G01*
X2372860Y10344289D01*
X2277356Y10374261D02*
G01*
X2372860Y10374261D01*
X2277356Y10374261D02*
G01*
X2277356Y10406011D01*
X2281928Y10419727D01*
X2290818Y10428871D01*
X2299962Y10433443D01*
X2313678Y10438015D01*
X2336284Y10438015D01*
X2350000Y10433443D01*
X2359144Y10428871D01*
X2368288Y10419727D01*
X2372860Y10406011D01*
X2372860Y10374261D01*
X2518656Y10207891D02*
G01*
X2614160Y10207891D01*
X2518656Y10207891D02*
G01*
X2518656Y10239641D01*
X2523228Y10253357D01*
X2532118Y10262501D01*
X2541262Y10267073D01*
X2554978Y10271645D01*
X2577584Y10271645D01*
X2591300Y10267073D01*
X2600444Y10262501D01*
X2609588Y10253357D01*
X2614160Y10239641D01*
X2614160Y10207891D01*
X2518656Y10301617D02*
G01*
X2614160Y10301617D01*
X2518656Y10331589D02*
G01*
X2614160Y10331589D01*
X2518656Y10331589D02*
G01*
X2614160Y10395089D01*
X2518656Y10395089D02*
G01*
X2614160Y10395089D01*
X4042656Y10195191D02*
G01*
X4138160Y10231513D01*
X4042656Y10267835D02*
G01*
X4138160Y10231513D01*
X4056118Y10338701D02*
G01*
X4138160Y10338701D01*
X4097012Y10297807D02*
G01*
X4097012Y10379849D01*
X3763256Y10207891D02*
G01*
X3858760Y10207891D01*
X3763256Y10207891D02*
G01*
X3763256Y10239641D01*
X3767828Y10253357D01*
X3776718Y10262501D01*
X3785862Y10267073D01*
X3799578Y10271645D01*
X3822184Y10271645D01*
X3835900Y10267073D01*
X3845044Y10262501D01*
X3854188Y10253357D01*
X3858760Y10239641D01*
X3858760Y10207891D01*
X3795006Y10324223D02*
G01*
X3799578Y10315079D01*
X3808722Y10306189D01*
X3822184Y10301617D01*
X3831328Y10301617D01*
X3845044Y10306189D01*
X3854188Y10315079D01*
X3858760Y10324223D01*
X3858760Y10337939D01*
X3854188Y10347083D01*
X3845044Y10355973D01*
X3831328Y10360545D01*
X3822184Y10360545D01*
X3808722Y10355973D01*
X3799578Y10347083D01*
X3795006Y10337939D01*
X3795006Y10324223D01*
X3795006Y10390517D02*
G01*
X3840472Y10390517D01*
X3854188Y10395089D01*
X3858760Y10404233D01*
X3858760Y10417949D01*
X3854188Y10427093D01*
X3840472Y10440555D01*
X3795006Y10440555D02*
G01*
X3858760Y10440555D01*
X3763256Y10484243D02*
G01*
X3840472Y10484243D01*
X3854188Y10488815D01*
X3858760Y10497959D01*
X3858760Y10507103D01*
X3795006Y10470527D02*
G01*
X3795006Y10502531D01*
X3531862Y10263263D02*
G01*
X3522718Y10258945D01*
X3513828Y10249801D01*
X3509256Y10240657D01*
X3509256Y10222369D01*
X3513828Y10213479D01*
X3522718Y10204335D01*
X3531862Y10199763D01*
X3545578Y10195191D01*
X3568184Y10195191D01*
X3581900Y10199763D01*
X3591044Y10204335D01*
X3600188Y10213479D01*
X3604760Y10222369D01*
X3604760Y10240657D01*
X3600188Y10249801D01*
X3591044Y10258945D01*
X3581900Y10263263D01*
X3509256Y10293489D02*
G01*
X3604760Y10293489D01*
X3604760Y10293489D02*
G01*
X3604760Y10347845D01*
X3509256Y10377817D02*
G01*
X3604760Y10377817D01*
X3509256Y10441571D02*
G01*
X3572756Y10377817D01*
X3550150Y10400677D02*
G01*
X3604760Y10441571D01*
X2772656Y10182491D02*
G01*
X2868160Y10182491D01*
X2868160Y10182491D02*
G01*
X2868160Y10237101D01*
X2772656Y10294251D02*
G01*
X2777228Y10285107D01*
X2786118Y10276217D01*
X2795262Y10271645D01*
X2808978Y10267073D01*
X2831584Y10267073D01*
X2845300Y10271645D01*
X2854444Y10276217D01*
X2863588Y10285107D01*
X2868160Y10294251D01*
X2868160Y10312539D01*
X2863588Y10321683D01*
X2854444Y10330573D01*
X2845300Y10335145D01*
X2831584Y10339717D01*
X2808978Y10339717D01*
X2795262Y10335145D01*
X2786118Y10330573D01*
X2777228Y10321683D01*
X2772656Y10312539D01*
X2772656Y10294251D01*
X2772656Y10406011D02*
G01*
X2868160Y10369689D01*
X2772656Y10406011D02*
G01*
X2868160Y10442587D01*
X2836156Y10383405D02*
G01*
X2836156Y10428871D01*
X2772656Y10472559D02*
G01*
X2868160Y10472559D01*
X2772656Y10472559D02*
G01*
X2772656Y10504309D01*
X2777228Y10518025D01*
X2786118Y10526915D01*
X2795262Y10531487D01*
X2808978Y10536059D01*
X2831584Y10536059D01*
X2845300Y10531487D01*
X2854444Y10526915D01*
X2863588Y10518025D01*
X2868160Y10504309D01*
X2868160Y10472559D01*
D12*
X4562210Y8537691D02*
G01*
X3838310Y8537691D01*
X4562210Y7013691D02*
G01*
X4727310Y7013691D01*
X4727310Y6569191D01*
X4028810Y6569191D01*
X3838310Y6759691D01*
X3838310Y6505691D02*
G01*
X4778110Y6505691D01*
X4778110Y8296391D01*
X4574910Y8296391D01*
X4562210Y8283691D01*
X3076310Y7775691D02*
G01*
X2733410Y7775691D01*
X2733410Y7496291D01*
X2530210Y7293091D01*
X2314310Y7293091D01*
X2288910Y7267691D01*
X3076310Y6505691D02*
G01*
X2504810Y6505691D01*
X2504810Y6797791D01*
X2288910Y7013691D01*
X3076310Y8537691D02*
G01*
X2530210Y8537691D01*
X2530210Y7826491D01*
X2339710Y7826491D01*
X2288910Y7775691D01*
X3076310Y8791691D02*
G01*
X2098410Y8791691D01*
X2098410Y6950191D01*
X2288910Y6759691D01*
X3838310Y7267691D02*
G01*
X4206610Y7267691D01*
X4206610Y6861291D01*
X4320910Y6746991D01*
X4549510Y6746991D01*
X4562210Y6759691D01*
X3076310Y6251691D02*
G01*
X2809610Y6251691D01*
X2796910Y6264391D01*
X3076310Y7013691D02*
G01*
X2809610Y7013691D01*
X2796910Y7026391D01*
X4816210Y9502891D02*
G01*
X4195511Y9502891D01*
X4168510Y9529892D01*
X4562210Y7521691D02*
G01*
X4447910Y7521691D01*
X4282810Y7686791D01*
X4282810Y8232891D01*
X4105010Y8410691D01*
X3584310Y8410691D01*
X3584310Y8715491D01*
X3762110Y8715491D01*
X3838310Y8791691D01*
X2340094Y10030091D02*
G01*
X2340094Y9550400D01*
X4140200Y9550400D01*
X3076308Y7013694D02*
G01*
X3263900Y7013694D01*
X3263900Y9550400D01*
X3076308Y8283694D02*
G01*
X3263900Y8283694D01*
D13*
G01*
X2288895Y8537702D03*
D14*
G01*
X2288895Y8283702D03*
G01*
X2288895Y8029702D03*
G01*
X2288895Y7775702D03*
G01*
X2288895Y7521702D03*
G01*
X2288895Y7267702D03*
G01*
X2288895Y7013702D03*
G01*
X2288895Y6759702D03*
D13*
G01*
X4562220Y8537702D03*
D14*
G01*
X4562220Y8283702D03*
G01*
X4562220Y8029702D03*
G01*
X4562220Y7775702D03*
G01*
X4562220Y7521702D03*
G01*
X4562220Y7267702D03*
G01*
X4562220Y7013702D03*
G01*
X4562220Y6759702D03*
G36*
X2250094Y10120091D02*
G01*
X2430094Y10120091D01*
X2430094Y9940091D01*
X2250094Y9940091D01*
G37*
G01*
X2594102Y10030079D03*
G01*
X2848102Y10030079D03*
G01*
X3102102Y10030079D03*
G01*
X3356102Y10030079D03*
G01*
X3610102Y10030079D03*
G01*
X3864102Y10030079D03*
G01*
X4118102Y10030079D03*
D15*
G01*
X4168495Y9729901D03*
G01*
X4168495Y9529902D03*
D16*
G01*
X4816220Y9502902D03*
G01*
X4816220Y9756902D03*
D17*
G01*
X4079595Y6988302D03*
G01*
X4079595Y7750302D03*
G01*
X2796895Y7026402D03*
G01*
X2796895Y6264402D03*
D14*
G01*
X3076295Y9045702D03*
G01*
X3076295Y8791702D03*
G01*
X3076295Y7521702D03*
G01*
X3076295Y7267702D03*
G01*
X3076295Y8537702D03*
G01*
X3076295Y8283702D03*
G01*
X3076295Y7775702D03*
G01*
X3076295Y8029702D03*
G01*
X3076295Y7013702D03*
G01*
X3076295Y6759702D03*
G01*
X3076295Y6505702D03*
G01*
X3076295Y6251702D03*
G01*
X3838295Y6251702D03*
G01*
X3838295Y6505702D03*
G01*
X3838295Y6759702D03*
G01*
X3838295Y7013702D03*
G01*
X3838295Y7267702D03*
G01*
X3838295Y7521702D03*
G01*
X3838295Y7775702D03*
G01*
X3838295Y8029702D03*
G01*
X3838295Y8283702D03*
G01*
X3838295Y8537702D03*
G01*
X3838295Y8791702D03*
G01*
X3838295Y9045702D03*
D18*
G01*
X4562220Y7267702D03*
M02*
