G04 Layer: BottomLayer*
G04 EasyEDA v6.5.9, 2022-08-12 00:02:45*
G04 2a9479771ff5440bbc068576edc866e0,fa163e59c691420ea6e3b66f1dbf35ee,10*
G04 Gerber Generator version 0.2*
G04 Scale: 100 percent, Rotated: No, Reflected: No *
G04 Dimensions in millimeters *
G04 leading zeros omitted , absolute positions ,4 integer and 5 decimal *
%FSLAX45Y45*%
%MOMM*%

%ADD10C,0.2540*%
%ADD11R,1.8000X1.8000*%
%ADD12C,1.8000*%
%ADD13C,1.3000*%
%ADD14C,1.1938*%
%ADD15C,1.8796*%
%ADD16C,1.5240*%

%LPD*%
D10*
X3076310Y7267691D02*
G01*
X2822310Y7521691D01*
X2822310Y8423391D01*
X2708010Y8537691D01*
X2288910Y8537691D01*
X3076310Y7521691D02*
G01*
X3203310Y7521691D01*
X3203310Y6886691D01*
X2581010Y6886691D01*
X2581010Y7229591D01*
X2288910Y7521691D01*
X3076310Y8029691D02*
G01*
X3203310Y8029691D01*
X3203310Y8867891D01*
X3139810Y8931391D01*
X3114410Y8905991D01*
X3105640Y8905991D01*
X3092940Y8918691D01*
X2060310Y8918691D01*
X2060310Y8512291D01*
X2288910Y8283691D01*
X2288910Y8029691D02*
G01*
X2034910Y8029691D01*
X2034910Y6619991D01*
X2238110Y6416791D01*
X2733410Y6416791D01*
X3076310Y6759691D01*
X4079610Y7750291D02*
G01*
X3863710Y7750291D01*
X3838310Y7775691D01*
X4168510Y9729894D02*
G01*
X4003410Y9729894D01*
X4003410Y7940791D01*
X3838310Y7775691D01*
X4816210Y9756891D02*
G01*
X4195511Y9756891D01*
X4168510Y9729894D01*
X4562210Y8029691D02*
G01*
X4803510Y8029691D01*
X4905110Y7928091D01*
X4905110Y6378691D01*
X3685910Y6378691D01*
X3685910Y6861291D01*
X3838310Y7013691D01*
X4079610Y6988291D02*
G01*
X4079610Y7000991D01*
X3939910Y7140691D01*
X3660510Y7140691D01*
X3660510Y7343891D01*
X3838310Y7521691D01*
X4562210Y7267691D02*
G01*
X4232010Y7267691D01*
X4092310Y7407391D01*
X4092310Y7496291D01*
X3939910Y7648691D01*
X3635110Y7648691D01*
X3635110Y8080491D01*
X3838310Y8283691D01*
X3864094Y10030091D02*
G01*
X3864094Y9071480D01*
X3838308Y9045694D01*
X4118094Y10030091D02*
G01*
X4118094Y9780308D01*
X4168508Y9729894D01*
X2848094Y10030091D02*
G01*
X3102094Y10030091D01*
X3356094Y10030091D02*
G01*
X3610094Y10030091D01*
X2594094Y10030091D02*
G01*
X2594094Y9779000D01*
X2946400Y9779000D01*
X3073400Y9652000D01*
X3073400Y9048602D01*
X3076308Y9045694D01*
X3102094Y10030091D02*
G01*
X3102094Y9902705D01*
X3365500Y9639300D01*
X3365500Y6540886D01*
X3076308Y6251694D01*
X3356094Y10030091D02*
G01*
X3356094Y9826505D01*
X3556000Y9626600D01*
X3556000Y6146800D01*
X3733413Y6146800D01*
X3838308Y6251694D01*
D11*
G01*
X2288895Y8537702D03*
D12*
G01*
X2288895Y8283702D03*
G01*
X2288895Y8029702D03*
G01*
X2288895Y7775702D03*
G01*
X2288895Y7521702D03*
G01*
X2288895Y7267702D03*
G01*
X2288895Y7013702D03*
G01*
X2288895Y6759702D03*
D11*
G01*
X4562220Y8537702D03*
D12*
G01*
X4562220Y8283702D03*
G01*
X4562220Y8029702D03*
G01*
X4562220Y7775702D03*
G01*
X4562220Y7521702D03*
G01*
X4562220Y7267702D03*
G01*
X4562220Y7013702D03*
G01*
X4562220Y6759702D03*
G36*
X2250094Y10120091D02*
G01*
X2430094Y10120091D01*
X2430094Y9940091D01*
X2250094Y9940091D01*
G37*
G01*
X2594102Y10030079D03*
G01*
X2848102Y10030079D03*
G01*
X3102102Y10030079D03*
G01*
X3356102Y10030079D03*
G01*
X3610102Y10030079D03*
G01*
X3864102Y10030079D03*
G01*
X4118102Y10030079D03*
D13*
G01*
X4168495Y9729901D03*
G01*
X4168495Y9529902D03*
D14*
G01*
X4816220Y9502902D03*
G01*
X4816220Y9756902D03*
D15*
G01*
X4079595Y6988302D03*
G01*
X4079595Y7750302D03*
G01*
X2796895Y7026402D03*
G01*
X2796895Y6264402D03*
D12*
G01*
X3076295Y9045702D03*
G01*
X3076295Y8791702D03*
G01*
X3076295Y7521702D03*
G01*
X3076295Y7267702D03*
G01*
X3076295Y8537702D03*
G01*
X3076295Y8283702D03*
G01*
X3076295Y7775702D03*
G01*
X3076295Y8029702D03*
G01*
X3076295Y7013702D03*
G01*
X3076295Y6759702D03*
G01*
X3076295Y6505702D03*
G01*
X3076295Y6251702D03*
G01*
X3838295Y6251702D03*
G01*
X3838295Y6505702D03*
G01*
X3838295Y6759702D03*
G01*
X3838295Y7013702D03*
G01*
X3838295Y7267702D03*
G01*
X3838295Y7521702D03*
G01*
X3838295Y7775702D03*
G01*
X3838295Y8029702D03*
G01*
X3838295Y8283702D03*
G01*
X3838295Y8537702D03*
G01*
X3838295Y8791702D03*
G01*
X3838295Y9045702D03*
D16*
G01*
X4562220Y7267702D03*
M02*
