G04 Layer: TopSilkscreenLayer*
G04 EasyEDA v6.5.9, 2022-08-12 00:02:45*
G04 2a9479771ff5440bbc068576edc866e0,fa163e59c691420ea6e3b66f1dbf35ee,10*
G04 Gerber Generator version 0.2*
G04 Scale: 100 percent, Rotated: No, Reflected: No *
G04 Dimensions in millimeters *
G04 leading zeros omitted , absolute positions ,4 integer and 5 decimal *
%FSLAX45Y45*%
%MOMM*%

%ADD10C,0.1524*%
%ADD11C,0.2540*%
%ADD12C,0.2007*%
%ADD13C,0.3000*%

%LPD*%
D10*
X2519794Y7674094D02*
G01*
X2519794Y7580622D01*
X4839830Y7627358D02*
G01*
X4746358Y7627358D01*
X4793094Y7674094D02*
G01*
X4793094Y7580622D01*
X4537316Y9574115D02*
G01*
X4547730Y9579449D01*
X4558144Y9589863D01*
X4563224Y9600023D01*
X4563224Y9620851D01*
X4558144Y9631265D01*
X4547730Y9641679D01*
X4537316Y9647013D01*
X4521568Y9652093D01*
X4495660Y9652093D01*
X4480166Y9647013D01*
X4469752Y9641679D01*
X4459338Y9631265D01*
X4454258Y9620851D01*
X4454258Y9600023D01*
X4459338Y9589863D01*
X4469752Y9579449D01*
X4480166Y9574115D01*
X4542396Y9539825D02*
G01*
X4547730Y9529411D01*
X4563224Y9513917D01*
X4454258Y9513917D01*
X4541380Y9685012D02*
G01*
X4530966Y9679678D01*
X4520552Y9669264D01*
X4515472Y9659104D01*
X4515472Y9638276D01*
X4520552Y9627862D01*
X4530966Y9617448D01*
X4541380Y9612114D01*
X4557128Y9607034D01*
X4583036Y9607034D01*
X4598530Y9612114D01*
X4608944Y9617448D01*
X4619358Y9627862D01*
X4624438Y9638276D01*
X4624438Y9659104D01*
X4619358Y9669264D01*
X4608944Y9679678D01*
X4598530Y9685012D01*
X4541380Y9724382D02*
G01*
X4536300Y9724382D01*
X4525886Y9729716D01*
X4520552Y9734796D01*
X4515472Y9745210D01*
X4515472Y9766038D01*
X4520552Y9776452D01*
X4525886Y9781532D01*
X4536300Y9786866D01*
X4546714Y9786866D01*
X4557128Y9781532D01*
X4572622Y9771118D01*
X4624438Y9719302D01*
X4624438Y9791946D01*
X3837292Y7369294D02*
G01*
X3946258Y7369294D01*
X3837292Y7369294D02*
G01*
X3837292Y7416030D01*
X3842372Y7431524D01*
X3847706Y7436858D01*
X3858120Y7441938D01*
X3868534Y7441938D01*
X3878948Y7436858D01*
X3884028Y7431524D01*
X3889108Y7416030D01*
X3889108Y7369294D01*
X3889108Y7405616D02*
G01*
X3946258Y7441938D01*
X3858120Y7476228D02*
G01*
X3852786Y7486642D01*
X3837292Y7502390D01*
X3946258Y7502390D01*
X3039224Y6645394D02*
G01*
X2930258Y6645394D01*
X3039224Y6645394D02*
G01*
X3039224Y6598658D01*
X3034144Y6583164D01*
X3028810Y6577830D01*
X3018396Y6572750D01*
X3007982Y6572750D01*
X2997568Y6577830D01*
X2992488Y6583164D01*
X2987408Y6598658D01*
X2987408Y6645394D01*
X2987408Y6609072D02*
G01*
X2930258Y6572750D01*
X3013316Y6533126D02*
G01*
X3018396Y6533126D01*
X3028810Y6528046D01*
X3034144Y6522712D01*
X3039224Y6512298D01*
X3039224Y6491724D01*
X3034144Y6481310D01*
X3028810Y6475976D01*
X3018396Y6470896D01*
X3007982Y6470896D01*
X2997568Y6475976D01*
X2982074Y6486390D01*
X2930258Y6538460D01*
X2930258Y6465562D01*
X4080700Y7674094D02*
G01*
X4002722Y7674094D01*
X3987228Y7669014D01*
X3976814Y7658600D01*
X3971734Y7642852D01*
X3971734Y7632438D01*
X3976814Y7616944D01*
X3987228Y7606530D01*
X4002722Y7601450D01*
X4080700Y7601450D01*
X4059872Y7567160D02*
G01*
X4065206Y7556746D01*
X4080700Y7540998D01*
X3971734Y7540998D01*
G36*
X4003395Y9450476D02*
G01*
X4013149Y9440875D01*
X4023410Y9431883D01*
X4034231Y9423552D01*
X4045508Y9415830D01*
X4057243Y9408820D01*
X4069384Y9402521D01*
X4081881Y9396984D01*
X4088231Y9394444D01*
X4101185Y9390024D01*
X4114342Y9386417D01*
X4127703Y9383572D01*
X4141215Y9381540D01*
X4154830Y9380321D01*
X4168495Y9379915D01*
X4182160Y9380321D01*
X4195775Y9381540D01*
X4209288Y9383572D01*
X4222648Y9386417D01*
X4235856Y9390024D01*
X4248759Y9394444D01*
X4261408Y9399676D01*
X4273753Y9405569D01*
X4285691Y9412224D01*
X4297172Y9419590D01*
X4308246Y9427616D01*
X4318812Y9436303D01*
X4328820Y9445599D01*
X4333595Y9450476D01*
G37*
D11*
X2410904Y8689690D02*
G01*
X2410904Y6607695D01*
X2410904Y6607698D02*
G01*
X2166912Y6607695D01*
X2166912Y6607695D02*
G01*
X2166912Y8689690D01*
X2166912Y8689690D02*
G01*
X2410904Y8689693D01*
X4684204Y8689690D02*
G01*
X4684204Y6607695D01*
X4684204Y6607698D02*
G01*
X4440212Y6607695D01*
X4440212Y6607695D02*
G01*
X4440212Y8689690D01*
X4440212Y8689690D02*
G01*
X4684204Y8689693D01*
X2188098Y10152087D02*
G01*
X4270093Y10152087D01*
X4270090Y10152087D02*
G01*
X4270093Y9908095D01*
X4270093Y9908095D02*
G01*
X2188098Y9908095D01*
X2188098Y9908095D02*
G01*
X2188095Y10152087D01*
X4318495Y9781506D02*
G01*
X4318495Y9679906D01*
X4368507Y9729894D02*
G01*
X4266907Y9729894D01*
D12*
X4689462Y9883640D02*
G01*
X4689462Y9375640D01*
X4943462Y9375640D01*
X4943462Y9883640D01*
X4689462Y9883640D01*
D11*
X4079608Y7115294D02*
G01*
X4079608Y7089894D01*
X4079608Y7623294D02*
G01*
X4079608Y7648694D01*
X4079608Y7115294D02*
G01*
X4003408Y7115294D01*
X4155808Y7115294D02*
G01*
X4079608Y7115294D01*
X4155808Y7623294D02*
G01*
X4155808Y7115294D01*
X4079608Y7623294D02*
G01*
X4155808Y7623294D01*
X4003408Y7623294D02*
G01*
X4079608Y7623294D01*
X4003408Y7115294D02*
G01*
X4003408Y7623294D01*
X2796908Y6899394D02*
G01*
X2796908Y6924794D01*
X2796908Y6391394D02*
G01*
X2796908Y6365994D01*
X2796908Y6899394D02*
G01*
X2873108Y6899394D01*
X2720708Y6899394D02*
G01*
X2796908Y6899394D01*
X2720708Y6391394D02*
G01*
X2720708Y6899394D01*
X2796908Y6391394D02*
G01*
X2720708Y6391394D01*
X2873108Y6391394D02*
G01*
X2796908Y6391394D01*
X2873108Y6899394D02*
G01*
X2873108Y6391394D01*
X3787307Y6048695D02*
G01*
X3127308Y6048695D01*
X3787307Y9248693D02*
G01*
X3558984Y9248693D01*
X3127308Y9248693D02*
G01*
X3355784Y9248693D01*
X3787307Y9248693D02*
G01*
X3787307Y9146626D01*
X3787307Y8944762D02*
G01*
X3787307Y8892626D01*
X3787307Y8690762D02*
G01*
X3787307Y8638626D01*
X3787307Y8436762D02*
G01*
X3787307Y8384626D01*
X3787307Y8182762D02*
G01*
X3787307Y8130626D01*
X3787307Y7928762D02*
G01*
X3787307Y7876626D01*
X3787307Y7674762D02*
G01*
X3787307Y7622626D01*
X3787307Y7420762D02*
G01*
X3787307Y7368626D01*
X3787307Y7166762D02*
G01*
X3787307Y7114626D01*
X3787307Y6912762D02*
G01*
X3787307Y6860626D01*
X3787307Y6658762D02*
G01*
X3787307Y6606626D01*
X3787307Y6404762D02*
G01*
X3787307Y6352626D01*
X3787307Y6150762D02*
G01*
X3787307Y6048695D01*
X3127308Y6048695D02*
G01*
X3127308Y6150762D01*
X3127308Y6352626D02*
G01*
X3127308Y6404762D01*
X3127308Y6606626D02*
G01*
X3127308Y6658762D01*
X3127308Y6860626D02*
G01*
X3127308Y6912762D01*
X3127308Y7114626D02*
G01*
X3127308Y7166762D01*
X3127308Y7368626D02*
G01*
X3127308Y7420762D01*
X3127308Y7622626D02*
G01*
X3127308Y7674762D01*
X3127308Y7876626D02*
G01*
X3127308Y7928762D01*
X3127308Y8130626D02*
G01*
X3127308Y8182762D01*
X3127308Y8384626D02*
G01*
X3127308Y8436762D01*
X3127308Y8638626D02*
G01*
X3127308Y8690762D01*
X3127308Y8892626D02*
G01*
X3127308Y8944762D01*
X3127308Y9146626D02*
G01*
X3127308Y9248693D01*
G75*
G01*
X3558985Y9248694D02*
G02*
X3355785Y9248694I-101600J0D01*
D13*
G75*
G01
X4418508Y9629902D02*
G03X4418508Y9629902I-250012J0D01*
M02*
